<svg width="184" height="37" viewBox="0 0 184 37" fill="none" xmlns="http://www.w3.org/2000/svg">
<path d="M8.7375 33.9167L11.175 23.0865L3 15.8021L13.8 14.8385L18 4.625L22.2 14.8385L33 15.8021L24.825 23.0865L27.2625 33.9167L18 28.174L8.7375 33.9167Z" fill="#CFD22D"/>
<path d="M45.7375 33.9167L48.175 23.0865L40 15.8021L50.8 14.8385L55 4.625L59.2 14.8385L70 15.8021L61.825 23.0865L64.2625 33.9167L55 28.174L45.7375 33.9167Z" fill="#CFD22D"/>
<path d="M82.7375 33.9167L85.175 23.0865L77 15.8021L87.8 14.8385L92 4.625L96.2 14.8385L107 15.8021L98.825 23.0865L101.262 33.9167L92 28.174L82.7375 33.9167Z" fill="#CFD22D"/>
<path d="M119.737 33.9167L122.175 23.0865L114 15.8021L124.8 14.8385L129 4.625L133.2 14.8385L144 15.8021L135.825 23.0865L138.262 33.9167L129 28.174L119.737 33.9167Z" fill="#CFD22D"/>
<path d="M156.737 33.9167L159.175 23.0865L151 15.8021L161.8 14.8385L166 4.625L170.2 14.8385L181 15.8021L172.825 23.0865L175.262 33.9167L166 28.174L156.737 33.9167Z" fill="#CFD22D"/>
</svg>
