<svg width="1512" height="283" viewBox="0 0 1512 283" fill="none" xmlns="http://www.w3.org/2000/svg">
<path d="M-1 141.5L62.0833 122.663C125.167 103.472 251.333 66.3282 377.5 75.4373C503.667 84.9001 629.833 141.5 756 165.113C882.167 188.372 1008.33 179.528 1134.5 160.337C1260.67 141.5 1386.83 113.2 1449.92 99.0501L1513 84.9001V283H1449.92C1386.83 283 1260.67 283 1134.5 283C1008.33 283 882.167 283 756 283C629.833 283 503.667 283 377.5 283C251.333 283 125.167 283 62.0833 283H-1V141.5Z" fill="#FFFAE5"/>
</svg>
