<svg width="1512" height="276" viewBox="0 0 1512 276" fill="none" xmlns="http://www.w3.org/2000/svg">
<g clip-path="url(#clip0_818_188)">
<path d="M1512 138L1449 156.371C1386 175.088 1260 211.313 1134 202.429C1008 193.2 882 138 756 114.971C630 92.2875 504 100.913 378 119.629C252 138 126 165.6 63.0001 179.4L0.00012207 193.2V3.05176e-05L63.0001 3.05176e-05C126 3.05176e-05 252 3.05176e-05 378 3.05176e-05C504 3.05176e-05 630 3.05176e-05 756 3.05176e-05C882 3.05176e-05 1008 3.05176e-05 1134 3.05176e-05C1260 3.05176e-05 1386 3.05176e-05 1449 3.05176e-05H1512V138Z" fill="#F5F5F5"/>
</g>
<defs>
<clipPath id="clip0_818_188">
<rect width="1512" height="276" fill="white" transform="translate(1512 276) rotate(-180)"/>
</clipPath>
</defs>
</svg>
